<?xml version="1.0" standalone="no"?>
<!DOCTYPE svg PUBLIC "-//W3C//DTD SVG 20010904//EN"
 "http://www.w3.org/TR/2001/REC-SVG-20010904/DTD/svg10.dtd">
<svg version="1.0" xmlns="http://www.w3.org/2000/svg"
 width="200.000000pt" height="200.000000pt" viewBox="0 0 200.000000 200.000000"
 preserveAspectRatio="xMidYMid meet">
<metadata>
Created by potrace 1.14, written by Peter Selinger 2001-2017
</metadata>
<g transform="translate(0.000000,200.000000) scale(0.100000,-0.100000)"
fill="#000000" stroke="none">
<path d="M850 1895 c-196 -36 -362 -124 -501 -266 -61 -62 -136 -169 -167
-239 -45 -100 -52 -119 -70 -210 -26 -126 -21 -345 9 -402 5 -9 9 -24 9 -33 0
-31 62 -166 111 -240 133 -205 358 -355 599 -400 19 -4 82 -8 140 -10 238 -7
455 75 639 241 60 54 135 150 172 220 16 32 34 63 38 69 7 9 51 141 57 170 1
6 5 26 9 45 11 59 14 232 5 285 -16 89 -21 108 -41 168 -98 291 -361 527 -659
592 -100 22 -257 26 -350 10z m129 -412 c10 -19 11 -25 11 -47 0 -7 30 -33 68
-57 212 -135 248 -164 279 -223 21 -40 18 -99 -7 -151 -32 -66 -45 -71 -47
-19 -2 60 -26 98 -103 162 -97 81 -100 83 -109 77 -5 -2 -8 -127 -8 -278 0
-256 -2 -275 -21 -313 -84 -165 -348 -175 -389 -14 -14 53 3 105 52 155 46 47
116 75 187 75 l38 0 0 313 c0 230 3 316 12 325 16 16 26 15 37 -5z"/>
</g>
</svg>
